<svg width="142" height="128" viewBox="0 0 142 128" fill="none" xmlns="http://www.w3.org/2000/svg">
<g id="Cppk_logo">
<g id="Group">
<path id="Vector" d="M67.2234 4.03145C58.1092 4.93853 46.8801 8.86924 40.8376 13.3039C39.2766 14.4629 39.2766 14.5133 40.3844 14.8157C41.039 14.9669 42.7007 15.1181 44.0603 15.1685C45.4702 15.1685 47.5851 15.37 48.844 15.5716C50.7071 15.8236 52.0163 15.5716 56.095 14.211C61.2816 12.4976 68.9355 11.0866 73.2659 11.0866C77.1936 11.0866 84.4447 12.3968 89.0773 13.8582C104.234 18.696 116.168 30.2866 121.959 45.707C122.613 47.5212 124.225 49.9905 126.239 52.359C128.001 54.4252 130.116 57.1464 130.972 58.4063L132.533 60.7244L132.181 56.9952C130.116 34.5196 113.751 14.1102 91.8972 6.8031C84.5957 4.33381 75.0787 3.27554 67.2234 4.03145Z" fill="#00943C"/>
<path id="Vector_2" d="M20.9979 34.9733C20.0411 36.4347 17.4227 42.5323 16.4156 45.6063C14.7035 51.0489 14.0489 55.7355 13.9986 62.9922C13.9986 73.4741 15.761 81.1339 20.1922 89.9024C23.3142 96 25.9326 99.578 31.4213 105.121C41.5426 115.301 53.6277 121.046 67.9787 122.406C81.373 123.717 95.7745 119.887 107.054 112.025C110.629 109.556 119.24 101.342 120.247 99.4772C120.801 98.4189 120.801 98.4189 117.93 99.0741C116.37 99.4772 113.952 99.7796 112.643 99.7796C110.478 99.7796 109.874 100.032 107.356 102.198C97.2851 110.816 86.2574 114.898 73.0142 114.898C63.8496 114.898 57.4043 113.335 48.844 109.052C44.4128 106.835 41.3915 104.567 36.9099 100.183C24.573 88.1386 19.034 71.2567 21.9043 54.6772C22.9113 49.0331 24.2206 45.1528 26.9901 39.6599C28.1986 37.1906 29.2057 35.0741 29.2057 35.0237C29.2057 34.8221 27.0908 34.4189 23.8177 34.1166C22.0553 33.915 21.6021 34.0662 20.9979 34.9733Z" fill="#00943C"/>
<path id="Vector_3" d="M20.1418 22.4756C14.3511 22.9795 6.69716 23.7858 5.63972 24.0378C5.03546 24.189 4.53191 24.5921 4.53191 24.9449C4.53191 25.3984 7.40213 25.6 16.2645 25.852C30.0617 26.2047 41.1397 27.6662 53.0738 30.6898C62.7418 33.1591 68.8851 35.4268 77.7979 39.811C92.3 46.8662 102.018 54.8284 109.27 65.5118C114.607 73.3732 114.657 77.7575 109.471 79.9244C108.111 80.4788 102.018 80.6299 75.9851 80.6299C58.5121 80.6299 44.3121 80.8315 44.4128 81.0835C44.5135 81.2851 45.4702 83.8047 46.578 86.6268L48.5922 91.7166H82.1787C114.859 91.7166 115.866 91.6662 118.535 90.6583C123.923 88.6425 128.304 83.2504 129.16 77.5559C130.167 70.7024 124.98 61.3795 114.909 51.8551C98.8965 36.7874 76.2872 27.1118 48.5922 23.4331C42.8014 22.6772 24.8752 22.0725 20.1418 22.4756Z" fill="#0445A2"/>
<path id="Vector_4" d="M36.2553 59.8678C36.2553 60.0694 37.1114 62.4883 38.1688 65.2599L40.0319 70.2993L70.4461 70.4505L100.81 70.5513L99.1986 67.6788C98.2922 66.0662 96.6305 63.5969 95.5731 62.1355L93.5589 59.4647H64.9071C49.1461 59.4647 36.2553 59.6158 36.2553 59.8678Z" fill="#0445A2"/>
</g>
</g>
</svg>
