<svg width="120" height="134" viewBox="0 0 120 134" fill="none" xmlns="http://www.w3.org/2000/svg">
<g id="rti logo">
<g id="Group">
<path id="Vector" d="M58.2222 9.82661L48.3333 17.9783V37.1849C48.3333 55.9449 48.3333 56.3916 47.2222 56.3916C46.1667 56.3916 46.1111 55.9449 46 39.3066L45.8333 22.2216L34.1667 31.6016L22.5 41.0374L22.3333 54.8283L22.2222 68.6749H30H37.7778V67.2791V65.8833H45H52.2222V99.1041V132.325H56.9445H61.6667V99.1041V65.8833H71.1111H80.5556V70.0708C80.5556 73.8674 80.4445 74.2583 79.4445 74.2583C78.3333 74.2583 78.3333 74.6491 78.3333 103.292V132.325H83.2222C87.9445 132.325 88.1667 132.269 88.7778 130.929C89.1667 130.147 92.5 122.442 96.2222 113.732L103.056 97.9874L103.222 115.128L103.333 132.325H108.333H113.333V103.292V74.2583H108.5H103.611L96.1667 91.5666C92.0556 101.114 88.5556 108.875 88.3889 108.875C88.2222 108.875 88.0556 101.17 88.0556 91.7341V74.5374L86.5556 74.3699C85 74.2024 85 74.1466 85 70.0149V65.8833H90.2222H95.4445L99.6667 61.3608L103.889 56.8383V48.6308V40.3674L95.2778 34.7283L86.6667 29.0891V42.7683C86.6667 55.4983 86.6111 56.4474 85.7222 56.2799C84.7778 56.1124 84.7222 54.6049 84.5556 35.4541L84.3889 14.7958L76.6111 8.37495C72.3333 4.85744 68.6667 1.89828 68.4445 1.84244C68.2222 1.73077 63.6111 5.35995 58.2222 9.82661ZM68.7778 10.6641L68.6111 17.0291L59.7222 23.0033C54.8333 26.2974 50.5 28.9774 50.1667 29.0333C49.6111 29.0333 49.4445 27.6933 49.4445 24.0083C49.4445 18.2016 48.1667 19.8766 60.2778 9.88245C64.5556 6.30911 68.2778 3.6291 68.5 3.85245C68.7222 4.07578 68.8333 7.14661 68.7778 10.6641ZM68.7778 40.0324L68.6111 56.1124L65.2222 56.2799L61.8333 56.4474L59.9445 49.6916L58.0556 42.9916H53.7778H49.4445V39.6416V36.2916L58.6667 30.1499C63.7222 26.7441 68.1111 24.0083 68.3889 24.0083C68.7222 24.0083 68.8333 30.1499 68.7778 40.0324ZM44.4445 40.7583V56.3916H41.1111H37.7778V54.7166V53.0416H30.8333H23.8889V47.2908V41.5958L34.0556 33.3883C39.6111 28.8658 44.2222 25.1808 44.3333 25.1808C44.3889 25.1249 44.4445 32.16 44.4445 40.7583ZM40.2778 57.8991C40.0556 58.4575 39.5 59.965 39.0556 61.2491C38.6111 62.5891 38.1111 63.6499 38 63.6499C37.8889 63.6499 37.7778 62.1424 37.7778 60.2999C37.7778 57.0616 37.8333 56.95 39.2222 56.95C40.3889 56.95 40.6111 57.1174 40.2778 57.8991ZM46.1111 57.7874C46.1111 58.7366 44.5 63.1474 43.8889 63.8175C43.6667 64.0966 43 62.9799 42.5 61.3049C41.9445 59.6858 41.3889 58.0108 41.2222 57.6199C41.0556 57.1733 41.7222 56.95 43.5556 56.95C45.4445 56.95 46.1111 57.1733 46.1111 57.7874ZM52.2222 57.1733C52.2222 58.1783 49.7222 63.5941 49.4445 63.2591C49.1111 62.8683 47.2222 57.6758 47.2222 57.1174C47.2222 57.0058 48.3333 56.95 49.7222 56.95C51.1111 56.95 52.2222 57.0616 52.2222 57.1733ZM57.7778 57.3408C57.7778 58.0108 55.8333 62.9799 55.4445 63.3708C55.1111 63.7058 53.3333 58.9599 53.3333 57.6758C53.3333 57.1733 54.1111 56.95 55.5556 56.95C56.7778 56.95 57.7778 57.1174 57.7778 57.3408ZM63.0556 58.4575C62.8889 59.2949 62.3333 60.8583 61.8333 61.9191L61 63.9291L60 61.4166C58.3889 57.5083 58.5 56.95 61.1667 56.95C63.3889 56.95 63.4445 57.0058 63.0556 58.4575ZM69.4445 57.5083C69.4445 58.7924 67.0556 64.2641 66.6667 63.8175C66.2222 63.3708 64.4445 58.1783 64.4445 57.3966C64.4445 57.1733 65.5556 56.95 66.9445 56.95C68.3333 56.95 69.4445 57.1733 69.4445 57.5083ZM74.3333 60.2999C73.6667 62.1424 72.9445 63.6499 72.7778 63.6499C72.4445 63.6499 70.5556 58.2341 70.5556 57.3408C70.5556 57.1174 71.6667 56.95 73.0556 56.95H75.5L74.3333 60.2999ZM81.1111 57.1733C81.1111 58.1783 78.6111 63.5941 78.3333 63.2591C78 62.8683 76.1111 57.6758 76.1111 57.1174C76.1111 57.0058 77.2222 56.95 78.6111 56.95C80 56.95 81.1111 57.0616 81.1111 57.1733ZM86.6667 57.3408C86.6667 58.0108 84.7222 62.9799 84.3333 63.3708C84.1667 63.5383 83.5 62.1983 82.8889 60.3558L81.7222 56.95H84.2222C85.5556 56.95 86.6667 57.1174 86.6667 57.3408ZM92.5556 57.8991C92.3889 58.4575 91.7222 60.1324 91.1667 61.6958L90.1111 64.4874L89.1667 62.3658C88.7222 61.1933 88.1667 59.5183 87.9445 58.5691C87.6667 56.95 87.6667 56.95 90.2222 56.95C92.5 56.95 92.8333 57.1174 92.5556 57.8991ZM102.222 57.3966C102.222 57.6199 100.778 59.2391 99 61.0258L95.7778 64.2083L94.6111 60.5791L93.4445 56.95H97.8333C100.222 56.95 102.222 57.1733 102.222 57.3966ZM42.4445 63.4824C42.8333 64.6549 42.6667 64.7666 40.6111 64.7666H38.3889L39.1111 62.9241C39.5 61.9749 40.0556 60.6349 40.2778 60.0208C40.6667 59.0158 40.7222 59.0716 41.3889 60.5791C41.7778 61.4725 42.2778 62.8124 42.4445 63.4824ZM48.5556 63.4824C48.9445 64.6549 48.7778 64.7666 46.7222 64.7666C44.2222 64.7666 44.2778 65.1016 46.1667 60.4116L46.7778 58.9041L47.5 60.5791C47.8889 61.4725 48.3889 62.8124 48.5556 63.4824ZM53.3333 60.5791C53.6111 61.3608 54.0556 62.645 54.2222 63.3708C54.5556 64.6549 54.3889 64.7666 52.5556 64.7666C51.4445 64.7666 50.5556 64.5433 50.5556 64.2083C50.5556 63.4824 52.2778 59.1833 52.5556 59.1833C52.7222 59.1833 53.0556 59.7974 53.3333 60.5791ZM59.3889 61.9191C60.3333 64.8224 60.2222 65.1016 58.0556 64.8783C57 64.7666 56.1111 64.5991 56.1111 64.5433C56.1111 64.4874 56.5 63.2033 57 61.7516C58 58.9041 58.3889 58.9599 59.3889 61.9191ZM65.1111 61.9749L66 64.7666H63.7778C62.2222 64.7666 61.6667 64.5433 61.8889 64.0408C62 63.7058 62.4445 62.4216 62.8333 61.2491C63.2222 60.1324 63.6667 59.1833 63.8889 59.1833C64.0556 59.1833 64.6111 60.4116 65.1111 61.9749ZM71.2222 61.9749L72.1111 64.7666H69.8889C68.3333 64.7666 67.7778 64.5433 68 64.0408C68.1111 63.7058 68.5556 62.4216 68.9445 61.2491C69.3333 60.1324 69.7778 59.1833 70 59.1833C70.1667 59.1833 70.7222 60.4116 71.2222 61.9749ZM77.4445 63.4824C77.8333 64.6549 77.6667 64.7666 75.6111 64.7666C73.1111 64.7666 73.1667 65.1016 75.0556 60.4116L75.6667 58.9041L76.3889 60.5791C76.7778 61.4725 77.2778 62.8124 77.4445 63.4824ZM82.2222 60.5791C82.5 61.3608 82.9445 62.645 83.1111 63.3708C83.4445 64.6549 83.2778 64.7666 81.4445 64.7666C80.3333 64.7666 79.4445 64.5433 79.4445 64.2083C79.4445 63.4824 81.1667 59.1833 81.4445 59.1833C81.6111 59.1833 81.9445 59.7974 82.2222 60.5791ZM87.7778 60.5791C88.0556 61.3608 88.5 62.645 88.6667 63.3708C89 64.6549 88.8333 64.7666 87 64.7666C85.8889 64.7666 85 64.7108 85 64.5991C85 64.0408 86.8333 59.1833 87 59.1833C87.1667 59.1833 87.5 59.7974 87.7778 60.5791ZM95 64.0408C95 64.4874 94.2222 64.7666 93.0556 64.7666C90.8333 64.7666 90.7778 64.5433 92.0556 61.3049L93 58.9599L94 61.1375C94.5 62.3658 95 63.7058 95 64.0408ZM84.4445 70.0708V74.2583H82.7778H81.1111V70.0708V65.8833H82.7778H84.4445V70.0708Z" fill="#0B2645"/>
<path id="Vector_2" d="M4.44446 103.292V132.325H9.44446H14.4445V120.879V109.433H26.1111H37.7778L37.6667 91.9575L37.5 74.5374L21 74.3699L4.44446 74.2583V103.292ZM27.7778 91.8458V101.058H21.1111H14.4445V91.8458V82.6333H21.1111H27.7778V91.8458Z" fill="#0B2645"/>
</g>
</g>
</svg>
