<svg width="125" height="66" viewBox="0 0 125 66" fill="none" xmlns="http://www.w3.org/2000/svg">
<path d="M113.64 4.08829C112.961 4.44535 111.422 5.2666 110.242 5.87361C108.113 6.99836 106.717 7.73034 104.213 9.08718C103.497 9.4621 102.156 10.1762 101.243 10.6404C100.331 11.1225 99.4187 11.6045 99.2041 11.7295C98.4169 12.1579 98.3991 12.3186 98.4706 20.1919C98.4885 24.316 98.5243 28.3151 98.5243 29.1006C98.5243 30.7967 98.4885 30.7788 100.546 30.0112C101.333 29.7255 102.066 29.5291 102.209 29.5827C102.424 29.6541 102.46 31.9572 102.46 44.7222C102.46 53.9166 102.531 59.9689 102.639 60.2367L102.8 60.683L108.667 60.7365C112.299 60.7722 114.696 60.7187 114.964 60.6116C115.215 60.5045 115.447 60.2367 115.501 59.9867C115.555 59.7368 115.572 46.936 115.519 31.5108C115.447 6.78412 115.394 3.48128 115.161 3.44557C115.018 3.42772 114.338 3.71337 113.64 4.08829Z" fill="#00346A"/>
<path d="M99.687 32.5463C99.4903 32.6892 99.1325 32.8677 98.882 32.9391C98.6316 33.0105 98.0413 33.2605 97.5404 33.4747C95.179 34.5459 94.1594 35.0101 92.2273 35.867C91.0824 36.3848 89.9912 36.9204 89.8302 37.0453C89.4724 37.2953 89.2578 38.8664 89.2399 41.1694C89.222 42.8476 89.3651 43.5618 89.7408 43.5618C89.9018 43.5618 90.5994 43.3654 91.2792 43.1333C91.9769 42.9012 92.5851 42.7584 92.6746 42.7941C92.7461 42.8298 92.7998 46.7575 92.7998 51.5243C92.7998 59.9332 92.8177 60.1831 93.1576 60.5223C93.4796 60.8437 93.7479 60.8794 96.628 60.8794C99.7407 60.8794 100.546 60.7723 100.707 60.3081C100.742 60.1831 100.742 53.8452 100.689 46.2398C100.581 31.3145 100.617 31.9036 99.687 32.5463Z" fill="#00346A"/>
<path d="M89.3115 45.6327C88.9179 45.7756 88.3097 45.972 87.9698 46.0612C87.3973 46.204 86.6102 46.4897 85.5548 46.936C85.358 47.0253 84.8213 47.2395 84.3383 47.4002C83.8732 47.5609 83.3723 47.8108 83.2471 47.9358C82.9788 48.2215 82.8178 50.8994 82.7462 56.5411C82.7104 59.0048 82.7462 60.0224 82.9072 60.1831C83.1576 60.4331 89.7587 60.5402 90.4385 60.3081L90.832 60.1653L90.7962 52.8097C90.7426 45.5792 90.7426 45.4364 90.3848 45.4006C90.188 45.3828 89.705 45.4721 89.3115 45.6327Z" fill="#00346A"/>
<path d="M30.8517 21.3598C30.7975 21.5959 30.707 23.7029 30.6528 26.046C30.5262 31.277 29.9475 37.1982 29.206 41.2123C28.6454 44.1911 28.3922 45.2446 27.9944 46.5705C27.7593 47.3515 27.705 47.3879 26.9817 47.4423C26.3668 47.4968 26.2041 47.5877 26.1317 47.8964C26.0775 48.1144 26.0594 50.9479 26.0775 54.1991L26.1317 60.1022L29.4592 60.1567C31.6474 60.193 32.8591 60.1385 32.9856 60.0114C33.0942 59.9024 33.2207 58.6854 33.275 57.1416L33.3654 54.4716L38.3748 54.4171L43.4022 54.3807L43.4926 54.7803C43.5469 55.0165 43.6011 56.3061 43.6373 57.6501L43.6734 60.1022H47.1095H50.5455V53.8358V47.5695L49.8221 47.4787L49.0987 47.3879L49.0083 34.2194C48.954 26.9723 48.8998 21.0329 48.8636 20.9965C48.8455 20.9784 44.7947 20.9602 39.8758 20.9602H30.924L30.8517 21.3598ZM40.6534 29.0429C40.8885 29.2609 40.9066 46.9519 40.6715 47.2244C40.3821 47.5695 36.6025 47.5877 36.4759 47.2426C36.4397 47.1154 36.4578 46.5705 36.5663 46.0256C37.4886 40.5766 38.1577 34.2739 38.1577 31.1317C38.1577 29.3698 38.2301 29.0974 38.7003 28.8976C39.0258 28.7523 40.4725 28.8613 40.6534 29.0429Z" fill="#00346A"/>
<path d="M5.53375 21.4326C5.33482 21.9593 5.40716 59.4666 5.60609 59.848C5.78693 60.175 6.02202 60.1931 9.22294 60.1931C12.0803 60.1931 12.677 60.1386 12.9121 59.9025C13.1653 59.6664 13.2015 58.7764 13.2015 53.0004C13.2015 45.5716 13.1472 45.8441 14.5035 46.6069L15.2812 47.0247L15.3716 53.4364C15.4439 58.4858 15.5163 59.8662 15.6971 59.9933C16.0407 60.2113 22.4606 60.2294 22.7861 60.0296C23.0212 59.8662 23.0574 58.7037 23.1116 51.7108C23.1297 47.2427 23.1116 43.4102 23.0755 43.2104C22.9851 42.829 22.4606 42.611 20.2543 41.9753C17.7406 41.2669 16.3662 40.7947 16.3662 40.6494C16.3662 40.3224 17.5779 39.8684 20.0735 39.269C20.5256 39.16 20.9777 39.0147 21.0681 38.942C21.1766 38.8694 21.5926 38.7422 22.0266 38.6696C22.6234 38.5788 22.8404 38.4335 22.9851 38.0883C23.1659 37.5979 23.2202 21.9048 23.0393 21.4326C22.9489 21.1783 22.4425 21.142 19.2597 21.142C16.0769 21.142 15.5705 21.1783 15.4801 21.4326C15.4258 21.5961 15.3716 24.4659 15.3716 27.8261C15.3716 31.1863 15.2992 34.0379 15.2269 34.1469C15.0461 34.4375 13.5451 35.1459 13.3642 35.0187C13.2738 34.9643 13.2015 31.9128 13.2015 28.2438C13.2015 23.3034 13.1472 21.5234 12.9845 21.3599C12.8217 21.1965 11.7366 21.142 9.20485 21.142C6.13053 21.142 5.62417 21.1783 5.53375 21.4326Z" fill="#00346A"/>
<path d="M53.8368 21.2691C53.7645 21.3236 53.7102 30.0239 53.7102 40.5768C53.7102 56.5786 53.7464 59.8117 53.9634 59.9933C54.1261 60.1387 56.4771 60.175 62.3183 60.1568L70.4381 60.1023V50.9298V41.7574L67.0926 41.7029C65.248 41.6847 63.5661 41.7029 63.3491 41.7574L62.9332 41.8482V46.8068C62.9332 50.4213 62.8789 51.8199 62.7162 51.9833C62.4449 52.2558 61.4141 52.2739 60.9258 52.0196C60.6003 51.838 60.5822 51.5111 60.5822 40.7402C60.5822 33.4386 60.6546 29.5335 60.7631 29.2973C60.9077 29.043 61.1428 28.9522 61.7577 28.9522C62.3726 28.9522 62.6077 29.043 62.7523 29.2973C62.8608 29.5153 62.9332 31.4951 62.9332 34.4739V39.3053H66.7309H70.5286L70.4924 30.26L70.4381 21.2328L62.1917 21.1783C57.6707 21.1602 53.891 21.1965 53.8368 21.2691Z" fill="#00346A"/>
</svg>
